# xmcd
#
# Track frame offsets:
#	150
#	4959
#	17202
#	34856
#	48266
#	57926
#	69701
#	77134
#	86455
#	97498
#
# Disc length: 1463 seconds
#
# Revision: 0
# Processed by: cddbd v1.5.2PL0 Copyright (c) Steve Scherf et al.
# Submitted via: dBpowerAMP V4.0
#
DISCID=8305b50a
DTITLE=Merle Haggard - Merle Haggard [CD1]
DYEAR=2007
DGENRE=Country
TTITLE0=Swinging Doors
TTITLE1=Okie From Muskogee
TTITLE2=I Think I'll Just Stay Here And Drink
TTITLE3=Right Or Wrong
TTITLE4=I Can't Be Myself
TTITLE5=From Graceland To the Promised Land
TTITLE6=I'm A Lonesome Fugitive
TTITLE7=Today I Started Loving You Again
TTITLE8=Silver Wings
TTITLE9=Workin Man Blues
EXTD=
EXTT0=
EXTT1=
EXTT2=
EXTT3=
EXTT4=
EXTT5=
EXTT6=
EXTT7=
EXTT8=
EXTT9=
PLAYORDER=
